Coordinates
version=1
nRows=12
nColumns=42
inDegrees=yes

Units are S.I. units (second, meters, Newtons, ...)
If the header above contains a line with 'inDegrees', this indicates whether rotational values are in degrees (yes) or radians (no).

endheader
time	pelvis_tilt	pelvis_list	pelvis_rotation	pelvis_tx	pelvis_ty	pelvis_tz	hip_flexion_r	hip_adduction_r	hip_rotation_r	knee_angle_r	knee_adduction_r	knee_angle_r_beta	ankle_angle_r	subtalar_angle_r	mtp_angle_r	hip_flexion_l	hip_adduction_l	hip_rotation_l	knee_angle_l	knee_adduction_l	knee_angle_l_beta	ankle_angle_l	subtalar_angle_l	mtp_angle_l	lumbar_extension	lumbar_bending	lumbar_rotation	arm_flex_r	arm_add_r	arm_rot_r	elbow_flex_r	pro_sup_r	wrist_flex_r	wrist_dev_r	arm_flex_l	arm_add_l	arm_rot_l	elbow_flex_l	pro_sup_l	wrist_flex_l	wrist_dev_l
      0.07000000	     -5.11128525	     -2.34965414	      2.87201086	     -2.61361439	      0.82418988	      0.21571940	     29.15001194	      1.11043255	     -8.15930404	     12.03916390	      5.14646741	      0.21012305	     -3.66345263	     -6.24671844	     -9.39253220	     -9.08160423	     -6.94695398	     -1.11952677	     17.59215623	     12.11737613	      0.30704105	     14.30053185	     -1.14730056	     -9.39253220	     -4.04171146	      2.36259519	     -4.14862979	     -9.55972232	    -16.09693838	      0.63683503	     22.63972172	     90.00000001	      0.00000000	      0.00000000	      8.79937195	    -15.08831098	     -8.15503652	     45.40064777	     90.00000001	      0.00000000	      0.00000000
      0.08000000	     -5.11424966	     -2.78255932	      2.77135959	     -2.60097062	      0.82507447	      0.21663076	     28.80876418	      1.68592222	     -7.91656561	     12.86934883	      5.13576113	      0.22461251	     -3.81382953	     -6.48270693	     -9.34447520	     -8.68709976	     -7.61386271	     -1.00168918	     19.85680224	     12.24147193	      0.34656658	     12.51236218	     -1.89822951	     -9.34447520	     -3.89100519	      3.00673049	     -3.89275683	     -9.51346204	    -16.32425492	      0.70917201	     22.64102349	     90.00000001	      0.00000000	      0.00000000	      8.30531215	    -14.84552516	     -8.33764306	     45.47865674	     90.00000001	      0.00000000	      0.00000000
      0.09000000	     -5.13537067	     -3.16351158	      2.63113959	     -2.58842370	      0.82619840	      0.21757011	     28.40373398	      2.19635791	     -7.49439528	     13.64569920	      5.21967458	      0.23816238	     -3.99633530	     -6.88020795	     -9.30068024	     -8.10079911	     -8.22032695	     -0.85506220	     22.36741496	     12.39818120	      0.39038504	     10.50712175	     -2.88688543	     -9.30068024	     -3.73775663	      3.57578058	     -3.60910800	     -9.37804267	    -16.53067309	      0.79127433	     22.60026721	     90.00000001	      0.00000000	      0.00000000	      7.78796764	    -14.57781353	     -8.60539636	     45.55973177	     90.00000001	      0.00000000	      0.00000000
      0.10000000	     -5.22453376	     -3.46701255	      2.41404338	     -2.57603211	      0.82756891	      0.21852880	     27.85357544	      2.67926176	     -6.01440498	     14.03036010	      5.53783272	      0.24487598	     -4.81747814	     -9.21455260	     -9.13918068	     -7.41126786	     -8.67783807	     -0.13213246	     24.76072417	     12.74629050	      0.43215616	      7.66823785	     -5.88866322	     -9.13918068	     -3.53207181	      4.06466752	     -3.35004264	     -8.92053363	    -16.76970189	      1.24023498	     22.20906159	     90.00000001	      0.00000000	      0.00000000	      7.14205712	    -14.12762008	     -9.60407505	     45.66209119	     90.00000001	      0.00000000	      0.00000000
      0.11000000	     -5.22299955	     -3.86805812	      2.28629063	     -2.56362888	      0.82903134	      0.21954119	     27.25764156	      3.20459020	     -5.74680523	     14.60997023	      5.63211856	      0.25499208	     -4.64686054	     -9.28117500	     -9.10011432	     -6.48228063	     -9.33018785	     -0.15029791	     27.80232711	     12.83830850	      0.48524215	      5.60761626	     -6.67129800	     -9.10011432	     -3.40593141	      4.63413289	     -3.00447988	     -8.75960589	    -16.97677426	      1.27938963	     22.36583383	     90.00000001	      0.00000000	      0.00000000	      6.60873871	    -13.87661253	     -9.67860475	     45.55390929	     90.00000001	      0.00000000	      0.00000000
      0.12000000	     -5.28896789	     -4.18313311	      2.05087898	     -2.55143583	      0.83060163	      0.22054711	     26.68780064	      3.65459418	     -5.22694668	     15.12161887	      5.81694831	      0.26392204	     -4.58224424	     -9.52015034	     -9.05481115	     -5.34657474	     -9.82924487	     -0.26256455	     30.98176333	     12.81424703	      0.54073378	      3.26985853	     -7.90737789	     -9.05481115	     -3.24664930	      5.12869652	     -2.60461318	     -8.40473354	    -17.21154233	      1.37848411	     22.46401413	     90.00000001	      0.00000000	      0.00000000	      6.03528420	    -13.56938575	     -9.93672575	     45.41720172	     90.00000001	      0.00000000	      0.00000000
      0.13000000	     -5.34691588	     -4.48126272	      1.86588847	     -2.53935490	      0.83229388	      0.22157015	     25.97340690	      4.07740361	     -4.65298276	     15.37037869	      6.02427525	      0.26826372	     -4.39244205	     -9.89485964	     -9.02421050	     -4.08705797	    -10.32985015	     -0.13307598	     34.21417644	     12.86916684	      0.59715003	      1.09046834	     -9.31718006	     -9.02421050	     -3.09907312	      5.57028616	     -2.23712805	     -7.99676429	    -17.40196069	      1.49280072	     22.50813679	     90.00000001	      0.00000000	      0.00000000	      5.48188858	    -13.26133287	    -10.24749868	     45.19661140	     90.00000001	      0.00000000	      0.00000000
      0.14000000	     -5.39529426	     -4.73555366	      1.67507085	     -2.52746094	      0.83404581	      0.22261315	     25.18330520	      4.44900249	     -4.13653214	     15.48951332	      6.24420276	      0.27034301	     -4.09606115	    -10.12146552	     -8.99573310	     -2.71337376	    -10.77727036	      0.02612452	     37.47634938	     12.88261905	      0.65408569	     -0.85747759	    -10.71340706	     -8.99573310	     -2.99801291	      5.95234741	     -1.82587305	     -7.52482158	    -17.59031169	      1.62585768	     22.62603975	     90.00000001	      0.00000000	      0.00000000	      4.94783096	    -12.95789928	    -10.56876010	     44.93165275	     90.00000001	      0.00000000	      0.00000000
      0.15000000	     -5.39900642	     -4.92498045	      1.51797027	     -2.51563348	      0.83587242	      0.22358651	     24.25594071	      4.73030231	     -3.76569848	     15.44830837	      6.46350090	      0.26962384	     -3.66095695	    -10.14206606	     -8.97583343	     -1.31286674	    -11.13652093	      0.33633636	     40.67000682	     12.94272142	      0.70982553	     -2.28262434	    -11.83506851	     -8.97583343	     -2.93184260	      6.23705396	     -1.43703304	     -7.04074528	    -17.75137712	      1.73984376	     22.79463565	     90.00000001	      0.00000000	      0.00000000	      4.45454024	    -12.68885804	    -10.81033417	     44.64057946	     90.00000001	      0.00000000	      0.00000000
      0.16000000	     -5.54271478	     -5.13576634	      1.30300360	     -2.50411780	      0.83757024	      0.22455921	     23.44288306	      5.08208005	     -3.39998806	     15.27156925	      6.58318165	      0.26653917	     -3.11725673	    -10.03763847	     -8.94948337	      0.43255150	    -11.48797342	      0.33975724	     44.00217661	     12.71802800	      0.76798286	     -3.83109634	    -13.30156309	     -8.94948337	     -2.75432772	      6.57397783	     -1.02099229	     -6.47642742	    -17.95529282	      1.92035769	     23.02719252	     90.00000001	      0.00000000	      0.00000000	      3.88900686	    -12.37813768	    -11.15549969	     44.22646915	     90.00000001	      0.00000000	      0.00000000
      0.17000000	     -5.59556055	     -5.21825975	      1.11691271	     -2.49270322	      0.83934018	      0.22546431	     22.48702352	      5.25787886	     -3.16649096	     15.02119388	      6.74142861	      0.26216929	     -2.54173829	     -9.74240447	     -8.92026453	      2.09724428	    -11.68986282	      0.51603692	     47.07442675	     12.58851533	      0.82160374	     -4.86325806	    -14.53842487	     -8.92026453	     -2.69709309	      6.73533871	     -0.58047324	     -5.88597319	    -18.13662640	      2.15830005	     23.31478527	     90.00000001	      0.00000000	      0.00000000	      3.45248669	    -12.09276443	    -11.51094049	     43.77972584	     90.00000001	      0.00000000	      0.00000000
      0.18000000	     -5.51147341	     -5.18059759	      1.01092114	     -2.48144893	      0.84118684	      0.22623537	     21.33877786	      5.23743153	     -3.10086881	     14.68618475	      6.95764238	      0.25632228	     -2.01948194	     -9.42263110	     -8.90753271	      3.64325711	    -11.72204080	      0.99933822	     49.86330812	     12.59334836	      0.87027890	     -5.09555123	    -15.17738684	     -8.90753271	     -2.83491883	      6.75362150	     -0.12529522	     -5.21896146	    -18.25739579	      2.28221012	     23.62565062	     90.00000001	      0.00000000	      0.00000000	      3.08092988	    -11.90778603	    -11.65864983	     43.43992957	     90.00000001	      0.00000000	      0.00000000
